<?xml version="1.0" encoding="UTF-8" standalone="no"?><svg xmlns="http://www.w3.org/2000/svg" xmlns:xlink="http://www.w3.org/1999/xlink" fill="#000000" height="686" preserveAspectRatio="xMidYMid meet" version="1" viewBox="139.0 157.0 722.0 686.0" width="722" zoomAndPan="magnify"><g fill="#ffffff" id="change1_1"><path d="M 575.996094 756.921875 L 575.996094 843.019531 L 424.003906 843.019531 L 424.003906 756.921875 L 441.222656 711 L 558.777344 711 L 575.996094 756.921875"/><path d="M 505.023438 745.972656 L 505.023438 758.855469 L 494.976562 758.855469 L 494.976562 743.589844 L 500.746094 752.988281 L 505.023438 745.972656"/><path d="M 508.171875 751.753906 L 499.203125 766.492188 L 495.890625 764.46875 L 493.878906 767.078125 L 491.828125 764.453125 L 493.59375 763.074219 L 496.636719 760.722656 L 499.003906 758.855469 L 499.015625 758.855469 L 499.101562 758.800781 L 499.1875 758.726562 L 499.933594 758.152344 L 508.171875 751.753906"/><path d="M 513.273438 751.726562 L 648.105469 530.191406 L 673.863281 487.875 L 682.789062 473.210938 L 682.804688 473.179688 C 684.480469 469.59375 686.375 466.148438 688.5 462.878906 C 704.585938 437.894531 732.710938 422.035156 763.148438 422.035156 C 804.433594 422.035156 840.0625 450.507812 849.40625 490.300781 Z M 352.238281 530.191406 L 486.496094 748.984375 L 150.621094 490.15625 C 159.980469 450.421875 195.582031 422.035156 236.851562 422.035156 C 267.300781 422.035156 295.414062 437.894531 311.515625 462.890625 C 313.539062 466.035156 315.375 469.320312 316.980469 472.75 L 316.996094 472.765625 L 326.195312 487.746094 Z M 860.941406 493.125 C 860.683594 489.425781 860.367188 485.734375 859.996094 482.0625 C 851.214844 395.132812 811.449219 314.730469 747.234375 254.617188 C 679.976562 191.648438 592.167969 156.980469 500 156.980469 C 407.816406 156.980469 320.007812 191.648438 252.75 254.601562 C 188.550781 314.6875 148.773438 395.074219 140.019531 481.976562 C 139.632812 485.679688 139.316406 489.394531 139.058594 493.125 L 139 493.886719 L 144.984375 498.492188 L 496.929688 769.71875 L 498.96875 767.078125 L 496.914062 764.453125 L 498.679688 763.074219 L 497.949219 762.632812 L 495.722656 763.996094 L 486.527344 749 L 494.976562 755.515625 L 494.976562 743.589844 L 364.035156 530.191406 L 330.730469 475.921875 C 344.546875 443.53125 376.847656 422.035156 412.277344 422.035156 C 448.742188 422.035156 481.863281 444.765625 494.976562 478.703125 L 494.976562 743.589844 L 500.746094 752.988281 L 505.023438 745.972656 L 505.023438 478.703125 C 518.136719 444.765625 551.257812 422.035156 587.722656 422.035156 C 623.195312 422.035156 655.523438 443.574219 669.3125 476.019531 L 636.351562 530.191406 L 505.023438 745.972656 L 505.023438 758.152344 L 513.257812 751.753906 L 504.289062 766.492188 L 500.976562 764.46875 L 498.96875 767.078125 L 503.085938 772.375 L 855.21875 498.492188 L 861 494.003906 L 860.941406 493.125"/><path d="M 503.070312 761.757812 L 500.976562 764.46875 L 498.96875 767.078125 L 496.914062 764.453125 L 498.679688 763.074219 L 497.949219 762.632812 L 495.722656 763.996094 L 486.527344 749 L 494.976562 755.515625 L 497.863281 757.738281 L 499.3125 758.855469 L 501.433594 760.492188 L 501.722656 760.722656 L 503.070312 761.757812"/></g></svg>